<?xml version="1.0" encoding="UTF-8"?>
<svg id="Calque_1" data-name="Calque 1" xmlns="http://www.w3.org/2000/svg" viewBox="0 0 6232.48 7216">
  <defs>
    <style>
      .cls-1 {
        fill: #e7609f;
      }

      .cls-2 {
        fill: #416b83;
      }

      .cls-3 {
        fill: #4e8399;
      }

      .cls-4 {
        fill: #39656d;
      }

      .cls-5 {
        fill: none;
      }

      .cls-6 {
        fill: #5188a0;
      }

      .cls-7 {
        fill: #bd4b89;
      }

      .cls-8 {
        fill: #5c9eb2;
      }

      .cls-9 {
        fill: #406a77;
      }

      .cls-10 {
        fill: #f2f2f2;
      }

      .cls-11 {
        fill: #e081b3;
      }
    </style>
  </defs>
  <polygon class="cls-10" points="1548.56 2714.76 3114.12 3617.56 3114.12 2714.76 3895.83 3166.16 3895.83 4968.57 2328.15 4063.65 2323.9 4968.57 1548.56 4518.23 1548.56 2714.76"/>
  <g>
    <polygon class="cls-1" points="1548.56 2714.76 3114.12 3617.56 3114.12 2714.76 2332.4 2253.81 1548.56 2714.76"/>
    <polygon class="cls-11" points="3895.83 2253.81 3114.12 2714.76 3895.83 3166.16 4681.8 2714.76 3895.83 2253.81"/>
  </g>
  <polygon class="cls-7" points="2323.9 4968.57 3115.18 5410.41 3115.18 4517.95 2328.15 4063.65 2323.9 4968.57"/>
  <polygon class="cls-1" points="3895.83 4968.57 4681.8 4511.86 4681.8 2714.76 3895.83 3166.16 3895.83 4968.57"/>
  <polygon class="cls-6" points="3895.83 2253.81 5455.02 1351.01 6232.48 1802.41 4681.8 2714.76 3895.83 2253.81"/>
  <polygon class="cls-2" points="4681.8 2714.76 4681.8 3617.56 5455.02 3166.16 5455.02 4968.57 3115.18 6315.33 3115.18 7216 6232.48 5410.41 6232.48 1802.41 4681.8 2714.76"/>
  <polyline class="cls-8" points="5455.02 4968.57 3115.18 6315.33 774.28 4951.57 1548.56 4518.23 3115.18 5410.41 4681.8 4511.86"/>
  <polygon class="cls-4" points="4681.8 3612.97 5455.02 3166.16 5455.02 4968.57 4681.8 4511.86 4681.8 3612.97"/>
  <polygon class="cls-4" points="3114.65 898.55 4681.8 1798.72 3895.83 2253.81 3114.65 1802.41 3114.65 898.55"/>
  <polygon class="cls-9" points="3115.18 898.55 774.28 2253.81 774.28 4951.57 1548.56 4518.23 1548.56 2714.76 3115.18 1802.41 3115.18 898.55"/>
  <polyline class="cls-3" points="3114.65 7216 0 5410.41 0 1802.41 774.28 2253.81 774.28 4951.57 3114.65 6315.33"/>
  <polygon class="cls-5" points="3114.65 6315.02 5448.64 4968.57 5455.02 3167.22 4681.8 3612.97 4681.8 2714.76 6232.48 1802.41 6232.48 5413.59 3114.65 7216 3114.65 6315.02"/>
  <polygon class="cls-8" points="0 1802.41 774.28 2253.81 3115.18 898.55 4681.8 1798.72 5455.02 1351.01 3115.18 0 0 1802.41"/>
</svg>